<?xml version="1.0" standalone="no"?>
 <!DOCTYPE svg PUBLIC "-//W3C//DTD SVG 1.1//EN" 
 "http://www.w3.org/Graphics/SVG/1.1/DTD/svg11.dtd"> 
<svg
  xmlns:svg="http://www.w3.org/2000/svg"
  xmlns="http://www.w3.org/2000/svg"
  xmlns:xlink="http://www.w3.org/1999/xlink"
  version="1.1"
  width="41.4528mm" height="33.3756mm" viewBox="0.0000 0.0000 41.4528 33.3756">
<title>SVG Image created as sharp_pcg850v-F_Mask.svg date 2025/05/31 13:48:07 </title>
  <desc>Image generated by PCBNEW </desc>
<g style="fill:#000000; fill-opacity:1.0000;stroke:#000000; stroke-opacity:1.0000;
stroke-linecap:round; stroke-linejoin:round;"
 transform="translate(0 0) scale(1 1)">
</g>
<g style="fill:#000000; fill-opacity:0.0; 
stroke:#000000; stroke-width:0.0000; stroke-opacity:1; 
stroke-linecap:round; stroke-linejoin:round;">
<g >
</g>
<g style="fill:#000000; fill-opacity:1.0000; 
stroke:#000000; stroke-width:0.0000; stroke-opacity:1; 
stroke-linecap:round; stroke-linejoin:round;">
<circle cx="31.3500" cy="7.7000" r="0.8000" /> 
</g>
<g style="fill:#000000; fill-opacity:1.0000; 
stroke:#000000; stroke-width:0.0212; stroke-opacity:1; 
stroke-linecap:round; stroke-linejoin:round;">
</g>
<g style="fill:#000000; fill-opacity:1.0000; 
stroke:#000000; stroke-width:0.0000; stroke-opacity:1; 
stroke-linecap:round; stroke-linejoin:round;">
<circle cx="31.3500" cy="10.2000" r="0.8000" /> 
</g>
<g style="fill:#000000; fill-opacity:1.0000; 
stroke:#000000; stroke-width:0.0212; stroke-opacity:1; 
stroke-linecap:round; stroke-linejoin:round;">
</g>
<g >
</g>
<g style="fill:#000000; fill-opacity:1.0000; 
stroke:#000000; stroke-width:0.0212; stroke-opacity:1; 
stroke-linecap:round; stroke-linejoin:round;">
</g>
<g style="fill:#000000; fill-opacity:1.0000; 
stroke:#000000; stroke-width:0.0000; stroke-opacity:1; 
stroke-linecap:round; stroke-linejoin:round;">
<path style="fill:#000000; fill-opacity:1.0000; 
stroke:#000000; stroke-width:0.0000; stroke-opacity:1; 
stroke-linecap:round; stroke-linejoin:round;fill-rule:evenodd;"
d="M 3.7000,24.9200
3.7000,26.6200
2.0000,26.6200
2.0000,24.9200
Z" /> 
<circle cx="2.8500" cy="23.2300" r="0.8500" /> 
<circle cx="2.8500" cy="20.6900" r="0.8500" /> 
<circle cx="2.8500" cy="18.1500" r="0.8500" /> 
<circle cx="2.8500" cy="15.6100" r="0.8500" /> 
<circle cx="2.8500" cy="13.0700" r="0.8500" /> 
</g>
<g >
</g>
<g style="fill:#000000; fill-opacity:1.0000; 
stroke:#000000; stroke-width:0.0000; stroke-opacity:1; 
stroke-linecap:round; stroke-linejoin:round;">
<path style="fill:#000000; fill-opacity:1.0000; 
stroke:#000000; stroke-width:0.0000; stroke-opacity:1; 
stroke-linecap:round; stroke-linejoin:round;fill-rule:evenodd;"
d="M 29.6500,13.3500
31.2500,13.3500
31.2500,15.7500
29.6500,15.7500
Z" /> 
</g>
<g style="fill:#000000; fill-opacity:1.0000; 
stroke:#000000; stroke-width:1.6000; stroke-opacity:1; 
stroke-linecap:round; stroke-linejoin:round;">
</g>
<g style="fill:#000000; fill-opacity:0.0; 
stroke:#000000; stroke-width:1.6000; stroke-opacity:1; 
stroke-linecap:round; stroke-linejoin:round;">
<path d="M27.9100 14.1500
L27.9100 14.9500
" />
<path d="M25.3700 14.1500
L25.3700 14.9500
" />
<path d="M22.8300 14.1500
L22.8300 14.9500
" />
<path d="M20.2900 14.1500
L20.2900 14.9500
" />
<path d="M17.7500 14.1500
L17.7500 14.9500
" />
<path d="M15.2100 14.1500
L15.2100 14.9500
" />
<path d="M15.2100 21.7700
L15.2100 22.5700
" />
<path d="M17.7500 21.7700
L17.7500 22.5700
" />
<path d="M20.2900 21.7700
L20.2900 22.5700
" />
<path d="M22.8300 21.7700
L22.8300 22.5700
" />
<path d="M25.3700 21.7700
L25.3700 22.5700
" />
<path d="M27.9100 21.7700
L27.9100 22.5700
" />
<path d="M30.4500 21.7700
L30.4500 22.5700
" />
</g>
<g >
</g>
<g style="fill:#000000; fill-opacity:0.0; 
stroke:#000000; stroke-width:1.6000; stroke-opacity:1; 
stroke-linecap:round; stroke-linejoin:round;">
</g>
<g style="fill:#000000; fill-opacity:0.0; 
stroke:#000000; stroke-width:0.0000; stroke-opacity:1; 
stroke-linecap:round; stroke-linejoin:round;">
</g>
<g style="fill:#000000; fill-opacity:1.0000; 
stroke:#000000; stroke-width:0.0000; stroke-opacity:1; 
stroke-linecap:round; stroke-linejoin:round;">
<path style="fill:#000000; fill-opacity:1.0000; 
stroke:#000000; stroke-width:0.0000; stroke-opacity:1; 
stroke-linecap:round; stroke-linejoin:round;fill-rule:evenodd;"
d="M 37.1620,4.9920
37.1620,3.2920
38.8620,3.2920
38.8620,4.9920
Z" /> 
<circle cx="38.0120" cy="6.6820" r="0.8500" /> 
<circle cx="38.0120" cy="9.2220" r="0.8500" /> 
<circle cx="38.0120" cy="11.7620" r="0.8500" /> 
<circle cx="38.0120" cy="14.3020" r="0.8500" /> 
<circle cx="38.0120" cy="16.8420" r="0.8500" /> 
<circle cx="38.0120" cy="19.3820" r="0.8500" /> 
<circle cx="38.0120" cy="21.9220" r="0.8500" /> 
<circle cx="38.0120" cy="24.4620" r="0.8500" /> 
<circle cx="38.0120" cy="27.0020" r="0.8500" /> 
<circle cx="38.0120" cy="29.5420" r="0.8500" /> 
</g>
<g >
</g>
<g >
</g>
<g >
</g>
</g>
<g style="fill:#000000; fill-opacity:1.0000; 
stroke:#000000; stroke-width:0.0000; stroke-opacity:1; 
stroke-linecap:round; stroke-linejoin:round;">
</g>
<g style="fill:#000000; fill-opacity:0.0; 
stroke:#000000; stroke-width:0.1000; stroke-opacity:1; 
stroke-linecap:round; stroke-linejoin:round;">
<path style="fill:#000000; fill-opacity:0.0; 
stroke:#000000; stroke-width:0.1000; stroke-opacity:1; 
stroke-linecap:round; stroke-linejoin:round;fill:none"
d="M 0.0500,0.0500
39.0500,0.0500
39.0500,33.3500
0.0500,33.3500
Z" /> 
<g >
</g>
<g >
</g>
<g >
</g>
<g >
</g>
<g >
</g>
<g >
</g>
<g >
</g>
</g> 
</svg>
