<?xml version="1.0" standalone="no"?>
 <!DOCTYPE svg PUBLIC "-//W3C//DTD SVG 1.1//EN" 
 "http://www.w3.org/Graphics/SVG/1.1/DTD/svg11.dtd"> 
<svg
  xmlns:svg="http://www.w3.org/2000/svg"
  xmlns="http://www.w3.org/2000/svg"
  xmlns:xlink="http://www.w3.org/1999/xlink"
  version="1.1"
  width="41.4528mm" height="33.3756mm" viewBox="0.0000 0.0000 41.4528 33.3756">
<title>SVG Image created as sharp_pcg850v-F_Cu.svg date 2025/05/31 12:33:52 </title>
  <desc>Image generated by PCBNEW </desc>
<g style="fill:#000000; fill-opacity:1.0000;stroke:#000000; stroke-opacity:1.0000;
stroke-linecap:round; stroke-linejoin:round;"
 transform="translate(0 0) scale(1 1)">
</g>
<g style="fill:#000000; fill-opacity:0.0; 
stroke:#000000; stroke-width:0.0000; stroke-opacity:1; 
stroke-linecap:round; stroke-linejoin:round;">
<g >
</g>
<g style="fill:#000000; fill-opacity:1.0000; 
stroke:#000000; stroke-width:0.0000; stroke-opacity:1; 
stroke-linecap:round; stroke-linejoin:round;">
<circle cx="31.3500" cy="7.7000" r="0.8000" /> 
</g>
<g style="fill:#000000; fill-opacity:1.0000; 
stroke:#000000; stroke-width:0.0212; stroke-opacity:1; 
stroke-linecap:round; stroke-linejoin:round;">
</g>
<g style="fill:#000000; fill-opacity:1.0000; 
stroke:#000000; stroke-width:0.0000; stroke-opacity:1; 
stroke-linecap:round; stroke-linejoin:round;">
<circle cx="31.3500" cy="10.2000" r="0.8000" /> 
</g>
<g style="fill:#000000; fill-opacity:1.0000; 
stroke:#000000; stroke-width:0.0212; stroke-opacity:1; 
stroke-linecap:round; stroke-linejoin:round;">
</g>
<g >
</g>
<g style="fill:#000000; fill-opacity:1.0000; 
stroke:#000000; stroke-width:0.0212; stroke-opacity:1; 
stroke-linecap:round; stroke-linejoin:round;">
</g>
<g style="fill:#000000; fill-opacity:1.0000; 
stroke:#000000; stroke-width:0.0000; stroke-opacity:1; 
stroke-linecap:round; stroke-linejoin:round;">
<path style="fill:#000000; fill-opacity:1.0000; 
stroke:#000000; stroke-width:0.0000; stroke-opacity:1; 
stroke-linecap:round; stroke-linejoin:round;fill-rule:evenodd;"
d="M 3.7000,24.9200
3.7000,26.6200
2.0000,26.6200
2.0000,24.9200
Z" /> 
<circle cx="2.8500" cy="23.2300" r="0.8500" /> 
<circle cx="2.8500" cy="20.6900" r="0.8500" /> 
<circle cx="2.8500" cy="18.1500" r="0.8500" /> 
<circle cx="2.8500" cy="15.6100" r="0.8500" /> 
<circle cx="2.8500" cy="13.0700" r="0.8500" /> 
</g>
<g >
</g>
<g style="fill:#000000; fill-opacity:1.0000; 
stroke:#000000; stroke-width:0.0000; stroke-opacity:1; 
stroke-linecap:round; stroke-linejoin:round;">
<path style="fill:#000000; fill-opacity:1.0000; 
stroke:#000000; stroke-width:0.0000; stroke-opacity:1; 
stroke-linecap:round; stroke-linejoin:round;fill-rule:evenodd;"
d="M 29.6500,13.3500
31.2500,13.3500
31.2500,15.7500
29.6500,15.7500
Z" /> 
</g>
<g style="fill:#000000; fill-opacity:1.0000; 
stroke:#000000; stroke-width:1.6000; stroke-opacity:1; 
stroke-linecap:round; stroke-linejoin:round;">
</g>
<g style="fill:#000000; fill-opacity:0.0; 
stroke:#000000; stroke-width:1.6000; stroke-opacity:1; 
stroke-linecap:round; stroke-linejoin:round;">
<path d="M27.9100 14.1500
L27.9100 14.9500
" />
<path d="M25.3700 14.1500
L25.3700 14.9500
" />
<path d="M22.8300 14.1500
L22.8300 14.9500
" />
<path d="M20.2900 14.1500
L20.2900 14.9500
" />
<path d="M17.7500 14.1500
L17.7500 14.9500
" />
<path d="M15.2100 14.1500
L15.2100 14.9500
" />
<path d="M15.2100 21.7700
L15.2100 22.5700
" />
<path d="M17.7500 21.7700
L17.7500 22.5700
" />
<path d="M20.2900 21.7700
L20.2900 22.5700
" />
<path d="M22.8300 21.7700
L22.8300 22.5700
" />
<path d="M25.3700 21.7700
L25.3700 22.5700
" />
<path d="M27.9100 21.7700
L27.9100 22.5700
" />
<path d="M30.4500 21.7700
L30.4500 22.5700
" />
</g>
<g >
</g>
<g style="fill:#000000; fill-opacity:0.0; 
stroke:#000000; stroke-width:1.6000; stroke-opacity:1; 
stroke-linecap:round; stroke-linejoin:round;">
</g>
<g style="fill:#000000; fill-opacity:0.0; 
stroke:#000000; stroke-width:0.0000; stroke-opacity:1; 
stroke-linecap:round; stroke-linejoin:round;">
</g>
<g style="fill:#000000; fill-opacity:1.0000; 
stroke:#000000; stroke-width:0.0000; stroke-opacity:1; 
stroke-linecap:round; stroke-linejoin:round;">
<path style="fill:#000000; fill-opacity:1.0000; 
stroke:#000000; stroke-width:0.0000; stroke-opacity:1; 
stroke-linecap:round; stroke-linejoin:round;fill-rule:evenodd;"
d="M 37.1620,4.9920
37.1620,3.2920
38.8620,3.2920
38.8620,4.9920
Z" /> 
<circle cx="38.0120" cy="6.6820" r="0.8500" /> 
<circle cx="38.0120" cy="9.2220" r="0.8500" /> 
<circle cx="38.0120" cy="11.7620" r="0.8500" /> 
<circle cx="38.0120" cy="14.3020" r="0.8500" /> 
<circle cx="38.0120" cy="16.8420" r="0.8500" /> 
<circle cx="38.0120" cy="19.3820" r="0.8500" /> 
<circle cx="38.0120" cy="21.9220" r="0.8500" /> 
<circle cx="38.0120" cy="24.4620" r="0.8500" /> 
<circle cx="38.0120" cy="27.0020" r="0.8500" /> 
<circle cx="38.0120" cy="29.5420" r="0.8500" /> 
</g>
<g >
</g>
<g style="fill:#000000; fill-opacity:1.0000; 
stroke:#000000; stroke-width:0.0000; stroke-opacity:1; 
stroke-linecap:round; stroke-linejoin:round;">
<circle cx="10.2500" cy="15.6500" r="0.9000" /> 
</g>
<g style="fill:#000000; fill-opacity:1.0000; 
stroke:#000000; stroke-width:0.0212; stroke-opacity:1; 
stroke-linecap:round; stroke-linejoin:round;">
</g>
<g style="fill:#000000; fill-opacity:1.0000; 
stroke:#000000; stroke-width:0.0000; stroke-opacity:1; 
stroke-linecap:round; stroke-linejoin:round;">
<circle cx="5.9500" cy="12.1500" r="0.9000" /> 
</g>
<g style="fill:#000000; fill-opacity:1.0000; 
stroke:#000000; stroke-width:0.0212; stroke-opacity:1; 
stroke-linecap:round; stroke-linejoin:round;">
</g>
<g >
</g>
<g style="fill:#000000; fill-opacity:1.0000; 
stroke:#000000; stroke-width:0.0212; stroke-opacity:1; 
stroke-linecap:round; stroke-linejoin:round;">
</g>
<g style="fill:#000000; fill-opacity:1.0000; 
stroke:#000000; stroke-width:0.5000; stroke-opacity:1; 
stroke-linecap:round; stroke-linejoin:round;">
</g>
<g style="fill:#000000; fill-opacity:0.0; 
stroke:#000000; stroke-width:0.5000; stroke-opacity:1; 
stroke-linecap:round; stroke-linejoin:round;">
<path d="M5.9500 12.0500
L5.9500 12.1500
" />
<path d="M5.7200 10.2000
L5.7200 11.8200
" />
<path d="M5.7200 11.8200
L5.9500 12.0500
" />
<path d="M10.1500 15.5500
L11.1500 14.5500
" />
<path d="M11.1500 14.5500
L15.2100 14.5500
" />
<path d="M2.8500 15.6100
L1.3500 17.1100
" />
<path d="M1.3500 17.1100
L1.3500 27.2700
" />
<path d="M1.3500 27.2700
L25.3500 27.2700
" />
<path d="M25.3500 27.2700
L30.4500 22.1700
" />
<path d="M2.8500 15.6100
L1.3500 14.1100
" />
<path d="M1.3500 14.1100
L1.3500 12.2500
" />
<path d="M1.3500 12.2500
L5.9000 7.7000
" />
<path d="M5.9000 7.7000
L31.3500 7.7000
" />
<path d="M31.3500 10.2000
L5.7200 10.2000
" />
<path d="M5.7200 10.2000
L2.8500 13.0700
" />
<path d="M31.3500 10.2000
L37.0340 10.2000
" />
<path d="M37.0340 10.2000
L38.0120 9.2220
" />
<path d="M38.0120 6.6820
L32.3680 6.6820
" />
<path d="M32.3680 6.6820
L31.3500 7.7000
" />
<path d="M2.8500 18.1500
L9.2000 11.8000
" />
<path d="M9.2000 11.8000
L25.1600 11.8000
" />
<path d="M25.1600 11.8000
L27.9100 14.5500
" />
<path d="M2.8500 20.6900
L10.8400 12.7000
" />
<path d="M10.8400 12.7000
L23.5200 12.7000
" />
<path d="M23.5200 12.7000
L25.3700 14.5500
" />
<path d="M2.8500 23.2300
L9.0700 23.2300
" />
<path d="M9.0700 23.2300
L17.7500 14.5500
" />
<path d="M2.8500 25.7700
L14.1500 25.7700
" />
<path d="M14.1500 25.7700
L17.7500 22.1700
" />
<path d="M38.0120 19.3820
L25.1220 19.3820
" />
<path d="M25.1220 19.3820
L20.2900 14.5500
" />
<path d="M38.0120 16.8420
L25.1220 16.8420
" />
<path d="M25.1220 16.8420
L22.8300 14.5500
" />
<path d="M30.4500 14.5500
L35.2240 14.5500
" />
<path d="M35.2240 14.5500
L38.0120 11.7620
" />
<path d="M38.0120 24.4620
L33.8700 20.3200
" />
<path d="M17.0600 20.3200
L15.2100 22.1700
" />
<path d="M33.8700 20.3200
L17.0600 20.3200
" />
</g>
<g >
</g>
<g style="fill:#000000; fill-opacity:0.0; 
stroke:#000000; stroke-width:0.5000; stroke-opacity:1; 
stroke-linecap:round; stroke-linejoin:round;">
<g >
</g>
<g style="fill:#000000; fill-opacity:1.0000; 
stroke:#000000; stroke-width:0.0000; stroke-opacity:1; 
stroke-linecap:round; stroke-linejoin:round;">
<path style="fill:#000000; fill-opacity:1.0000; 
stroke:#000000; stroke-width:0.0000; stroke-opacity:1; 
stroke-linecap:round; stroke-linejoin:round;fill-rule:evenodd;"
d="M 13.9742,13.4702
14.0199,13.5230
14.0299,13.5921
14.0195,13.6269
13.9837,13.7037
13.9837,13.7037
13.9249,13.9234
13.9249,13.9234
13.9100,14.0932
13.9100,14.3000
14.8943,14.3000
14.8824,14.3120
14.8248,14.4249
14.8050,14.5500
14.8248,14.6751
14.8824,14.7880
14.8943,14.8000
13.9100,14.8000
13.9100,15.0068
13.9249,15.1766
13.9249,15.1766
13.9837,15.3963
13.9837,15.3963
14.0799,15.6025
14.2103,15.7888
14.3712,15.9497
14.5575,16.0801
14.7637,16.1763
14.7637,16.1763
14.7918,16.1838
14.8514,16.2202
14.8820,16.2830
14.8737,16.3524
14.8474,16.3913
8.7955,22.4432
8.7341,22.4767
8.7078,22.4795
4.0377,22.4795
3.9707,22.4598
3.9361,22.4266
3.8885,22.3586
3.7214,22.1915
3.7214,22.1915
3.5358,22.0616
3.4922,22.0070
3.4850,21.9375
3.5165,21.8751
3.5358,21.8584
3.5995,21.8139
3.7214,21.7285
3.8885,21.5614
4.0240,21.3678
4.1239,21.1537
4.1851,20.9254
4.2057,20.6900
4.1870,20.4770
4.2008,20.4085
4.2229,20.3785
11.1145,13.4868
11.1759,13.4533
11.2022,13.4505
13.9071,13.4505
Z" /> 
<path style="fill:#000000; fill-opacity:1.0000; 
stroke:#000000; stroke-width:0.0000; stroke-opacity:1; 
stroke-linecap:round; stroke-linejoin:round;fill-rule:evenodd;"
d="M 36.8913,7.4522
36.9259,7.4854
36.9735,7.5534
37.1406,7.7205
37.1406,7.7205
37.3266,7.8507
37.3702,7.9053
37.3774,7.9748
37.3459,8.0372
37.3266,8.0539
37.1409,8.1839
37.1409,8.1839
36.9739,8.3509
36.9739,8.3509
36.8384,8.5444
36.8384,8.5444
36.7386,8.7585
36.7386,8.7585
36.6814,8.9720
36.6814,8.9720
37.5783,8.9720
37.5525,9.0122
37.5120,9.1501
37.5120,9.2939
37.5525,9.4318
37.5783,9.4720
36.6814,9.4720
36.7386,9.6855
36.7386,9.6855
36.8384,9.8996
36.9739,10.0931
37.1409,10.2601
37.3266,10.3901
37.3702,10.4447
37.3774,10.5142
37.3459,10.5765
37.3266,10.5933
37.1406,10.7235
36.9735,10.8906
36.8380,11.0842
36.8380,11.0842
36.7381,11.2983
36.7381,11.2983
36.6769,11.5266
36.6769,11.5266
36.6563,11.7620
36.6563,11.7620
36.6750,11.9750
36.6612,12.0435
36.6391,12.0735
34.9495,13.7632
34.8881,13.7967
34.8618,13.7995
31.8745,13.7995
31.8075,13.7798
31.7617,13.7270
31.7505,13.6755
31.7505,13.3021
31.7505,13.3021
31.7481,13.2798
31.7441,13.2425
31.7267,13.1960
31.6938,13.1077
31.6938,13.1077
31.6075,12.9925
31.6075,12.9925
31.4923,12.9062
31.4923,12.9062
31.3575,12.8559
31.3575,12.8559
31.2979,12.8495
31.2979,12.8495
31.2979,12.8495
31.2979,12.8495
29.6021,12.8495
29.6021,12.8495
29.5425,12.8559
29.4077,12.9062
29.4077,12.9062
29.2925,12.9925
29.2925,12.9925
29.2062,13.1077
29.2062,13.1077
29.1559,13.2425
29.1521,13.2776
29.1254,13.3421
29.0680,13.3820
28.9982,13.3845
28.9381,13.3488
28.9273,13.3355
28.9100,13.3109
28.7491,13.1500
28.5627,13.0194
28.5627,13.0194
28.3565,12.9233
28.3565,12.9233
28.1367,12.8644
28.1367,12.8644
28.1367,12.8644
28.1367,12.8644
28.1367,12.8644
27.9100,12.8445
27.9100,12.8445
27.6833,12.8644
27.6833,12.8644
27.4635,12.9233
27.4635,12.9233
27.4611,12.9244
27.4600,12.9246
27.4584,12.9251
27.4583,12.9248
27.3920,12.9349
27.3282,12.9063
27.3210,12.8997
25.7357,11.3144
25.7239,11.3007
25.7165,11.2907
25.7096,11.2815
25.7067,11.2790
25.6696,11.2479
25.6656,11.2442
25.6627,11.2413
25.6598,11.2384
25.6347,11.2186
25.6333,11.2175
25.5752,11.1687
25.5692,11.1647
25.5692,11.1647
25.5629,11.1606
25.5628,11.1607
25.5567,11.1569
25.5567,11.1569
25.5567,11.1569
25.4879,11.1248
25.4863,11.1240
25.4465,11.1041
25.4184,11.0900
25.4184,11.0900
25.4184,11.0900
25.4116,11.0875
25.4117,11.0874
25.4045,11.0850
25.4045,11.0850
25.3977,11.0827
25.3233,11.0674
25.3216,11.0670
25.2477,11.0495
25.2405,11.0487
25.2406,11.0486
25.2331,11.0478
25.2330,11.0479
25.2259,11.0473
25.1500,11.0495
25.1482,11.0495
9.2637,11.0495
9.2457,11.0482
9.2220,11.0447
9.1769,11.0487
9.1699,11.0493
9.1645,11.0495
9.1563,11.0495
9.1246,11.0532
9.1228,11.0534
9.0472,11.0600
9.0401,11.0615
9.0401,11.0614
9.0328,11.0630
9.0328,11.0631
9.0257,11.0648
8.9544,11.0907
8.9527,11.0913
8.8807,11.1152
8.8741,11.1182
8.8741,11.1182
8.8673,11.1215
8.8673,11.1215
8.8609,11.1248
8.7975,11.1665
8.7960,11.1674
8.7313,11.2073
8.7257,11.2118
8.7256,11.2117
8.7198,11.2165
8.7198,11.2165
8.7143,11.2212
8.6622,11.2764
8.6610,11.2777
4.4036,15.5350
4.3423,15.5685
4.2726,15.5635
4.2166,15.5217
4.1924,15.4582
4.1890,15.4192
4.1851,15.3746
4.1337,15.1830
4.1239,15.1463
4.1239,15.1463
4.1239,15.1463
4.0240,14.9322
3.9315,14.8000
3.8885,14.7386
3.7214,14.5715
3.7214,14.5715
3.5466,14.4491
3.5354,14.4413
3.4918,14.3867
3.4846,14.3172
3.5161,14.2548
3.5354,14.2381
3.7211,14.1081
3.8881,13.9411
4.0236,13.7476
4.1234,13.5335
4.1234,13.5335
4.1806,13.3200
3.2837,13.3200
3.3095,13.2798
3.3500,13.1419
3.3500,12.9981
3.3095,12.8602
3.2837,12.8200
4.1806,12.8200
4.1806,12.8200
4.1234,12.6065
4.1234,12.6065
4.0236,12.3924
4.0236,12.3924
3.8881,12.1989
3.8881,12.1989
3.7211,12.0319
3.5276,11.8964
3.3135,11.7966
3.3135,11.7966
3.1671,11.7573
3.1074,11.7210
3.0769,11.6581
3.0852,11.5887
3.1115,11.5499
6.1745,8.4868
6.2359,8.4533
6.2622,8.4505
30.2233,8.4505
30.2904,8.4702
30.3249,8.5034
30.3500,8.5391
30.5109,8.7000
30.5109,8.7000
30.6973,8.8306
30.7130,8.8379
30.7654,8.8841
30.7846,8.9513
30.7644,9.0181
30.7130,9.0627
30.6975,9.0699
30.6245,9.1210
30.6245,9.1210
31.3056,9.8020
31.2249,9.8148
31.1120,9.8724
31.0224,9.9620
30.9648,10.0749
30.9520,10.1556
30.2710,9.4745
30.2710,9.4745
30.2199,9.5475
30.1237,9.7537
30.1237,9.7537
30.0649,9.9734
30.0649,9.9734
30.0450,10.2000
30.0450,10.2000
30.0649,10.4266
30.0649,10.4266
30.1237,10.6463
30.1237,10.6463
30.2199,10.8525
30.2199,10.8525
30.2710,10.9255
30.2710,10.9255
30.9520,10.2444
30.9648,10.3251
31.0224,10.4380
31.1120,10.5276
31.2249,10.5852
31.3056,10.5980
30.6245,11.2790
30.6245,11.2790
30.6975,11.3301
30.6975,11.3301
30.9037,11.4263
30.9037,11.4263
31.1234,11.4851
31.1234,11.4851
31.3500,11.5050
31.3500,11.5050
31.5766,11.4851
31.5766,11.4851
31.7963,11.4263
31.7963,11.4263
32.0025,11.3301
32.0755,11.2790
31.3944,10.5980
31.4751,10.5852
31.5880,10.5276
31.6776,10.4380
31.7352,10.3251
31.7480,10.2444
32.4290,10.9255
32.4801,10.8525
32.5763,10.6463
32.5763,10.6463
32.6351,10.4266
32.6351,10.4266
32.6550,10.2000
32.6550,10.2000
32.6351,9.9734
32.6351,9.9734
32.5763,9.7537
32.5763,9.7537
32.4801,9.5475
32.4801,9.5475
32.4290,9.4745
32.4290,9.4745
31.7480,10.1556
31.7352,10.0749
31.6776,9.9620
31.5880,9.8724
31.4751,9.8148
31.3944,9.8020
32.0755,9.1210
32.0755,9.1210
32.0025,9.0699
32.0025,9.0699
31.9870,9.0627
31.9346,9.0165
31.9154,8.9493
31.9356,8.8824
31.9870,8.8379
32.0027,8.8306
32.1891,8.7000
32.3500,8.5391
32.4806,8.3527
32.5767,8.1465
32.6356,7.9267
32.6555,7.7000
32.6439,7.5673
32.6576,7.4988
32.7062,7.4486
32.7674,7.4325
36.8243,7.4325
Z" /> 
</g>
</g>
</g>
<g style="fill:#FFFFFF; fill-opacity:1.0000; 
stroke:#FFFFFF; stroke-width:0.0000; stroke-opacity:1; 
stroke-linecap:round; stroke-linejoin:round;">
<circle cx="10.2500" cy="15.6500" r="0.5000" /> 
</g>
<g style="fill:#FFFFFF; fill-opacity:1.0000; 
stroke:#FFFFFF; stroke-width:0.0212; stroke-opacity:1; 
stroke-linecap:round; stroke-linejoin:round;">
</g>
<g style="fill:#FFFFFF; fill-opacity:1.0000; 
stroke:#FFFFFF; stroke-width:0.0000; stroke-opacity:1; 
stroke-linecap:round; stroke-linejoin:round;">
<circle cx="5.9500" cy="12.1500" r="0.5000" /> 
</g>
<g style="fill:#FFFFFF; fill-opacity:1.0000; 
stroke:#FFFFFF; stroke-width:0.0212; stroke-opacity:1; 
stroke-linecap:round; stroke-linejoin:round;">
</g>
<g style="fill:#FFFFFF; fill-opacity:1.0000; 
stroke:#FFFFFF; stroke-width:0.0000; stroke-opacity:1; 
stroke-linecap:round; stroke-linejoin:round;">
<circle cx="31.3500" cy="7.7000" r="0.4000" /> 
</g>
<g style="fill:#FFFFFF; fill-opacity:1.0000; 
stroke:#FFFFFF; stroke-width:0.0212; stroke-opacity:1; 
stroke-linecap:round; stroke-linejoin:round;">
</g>
<g style="fill:#FFFFFF; fill-opacity:1.0000; 
stroke:#FFFFFF; stroke-width:0.0000; stroke-opacity:1; 
stroke-linecap:round; stroke-linejoin:round;">
<circle cx="31.3500" cy="10.2000" r="0.4000" /> 
</g>
<g style="fill:#FFFFFF; fill-opacity:1.0000; 
stroke:#FFFFFF; stroke-width:0.0212; stroke-opacity:1; 
stroke-linecap:round; stroke-linejoin:round;">
</g>
<g style="fill:#FFFFFF; fill-opacity:1.0000; 
stroke:#FFFFFF; stroke-width:0.0000; stroke-opacity:1; 
stroke-linecap:round; stroke-linejoin:round;">
<circle cx="2.8500" cy="25.7700" r="0.5000" /> 
</g>
<g style="fill:#FFFFFF; fill-opacity:1.0000; 
stroke:#FFFFFF; stroke-width:0.0212; stroke-opacity:1; 
stroke-linecap:round; stroke-linejoin:round;">
</g>
<g style="fill:#FFFFFF; fill-opacity:1.0000; 
stroke:#FFFFFF; stroke-width:0.0000; stroke-opacity:1; 
stroke-linecap:round; stroke-linejoin:round;">
<circle cx="2.8500" cy="23.2300" r="0.5000" /> 
</g>
<g style="fill:#FFFFFF; fill-opacity:1.0000; 
stroke:#FFFFFF; stroke-width:0.0212; stroke-opacity:1; 
stroke-linecap:round; stroke-linejoin:round;">
</g>
<g style="fill:#FFFFFF; fill-opacity:1.0000; 
stroke:#FFFFFF; stroke-width:0.0000; stroke-opacity:1; 
stroke-linecap:round; stroke-linejoin:round;">
<circle cx="2.8500" cy="20.6900" r="0.5000" /> 
</g>
<g style="fill:#FFFFFF; fill-opacity:1.0000; 
stroke:#FFFFFF; stroke-width:0.0212; stroke-opacity:1; 
stroke-linecap:round; stroke-linejoin:round;">
</g>
<g style="fill:#FFFFFF; fill-opacity:1.0000; 
stroke:#FFFFFF; stroke-width:0.0000; stroke-opacity:1; 
stroke-linecap:round; stroke-linejoin:round;">
<circle cx="2.8500" cy="18.1500" r="0.5000" /> 
</g>
<g style="fill:#FFFFFF; fill-opacity:1.0000; 
stroke:#FFFFFF; stroke-width:0.0212; stroke-opacity:1; 
stroke-linecap:round; stroke-linejoin:round;">
</g>
<g style="fill:#FFFFFF; fill-opacity:1.0000; 
stroke:#FFFFFF; stroke-width:0.0000; stroke-opacity:1; 
stroke-linecap:round; stroke-linejoin:round;">
<circle cx="2.8500" cy="15.6100" r="0.5000" /> 
</g>
<g style="fill:#FFFFFF; fill-opacity:1.0000; 
stroke:#FFFFFF; stroke-width:0.0212; stroke-opacity:1; 
stroke-linecap:round; stroke-linejoin:round;">
</g>
<g style="fill:#FFFFFF; fill-opacity:1.0000; 
stroke:#FFFFFF; stroke-width:0.0000; stroke-opacity:1; 
stroke-linecap:round; stroke-linejoin:round;">
<circle cx="2.8500" cy="13.0700" r="0.5000" /> 
</g>
<g style="fill:#FFFFFF; fill-opacity:1.0000; 
stroke:#FFFFFF; stroke-width:0.0212; stroke-opacity:1; 
stroke-linecap:round; stroke-linejoin:round;">
</g>
<g style="fill:#FFFFFF; fill-opacity:1.0000; 
stroke:#FFFFFF; stroke-width:0.0000; stroke-opacity:1; 
stroke-linecap:round; stroke-linejoin:round;">
<circle cx="30.4500" cy="14.5500" r="0.4000" /> 
</g>
<g style="fill:#FFFFFF; fill-opacity:1.0000; 
stroke:#FFFFFF; stroke-width:0.0212; stroke-opacity:1; 
stroke-linecap:round; stroke-linejoin:round;">
</g>
<g style="fill:#FFFFFF; fill-opacity:1.0000; 
stroke:#FFFFFF; stroke-width:0.0000; stroke-opacity:1; 
stroke-linecap:round; stroke-linejoin:round;">
<circle cx="27.9100" cy="14.5500" r="0.4000" /> 
</g>
<g style="fill:#FFFFFF; fill-opacity:1.0000; 
stroke:#FFFFFF; stroke-width:0.0212; stroke-opacity:1; 
stroke-linecap:round; stroke-linejoin:round;">
</g>
<g style="fill:#FFFFFF; fill-opacity:1.0000; 
stroke:#FFFFFF; stroke-width:0.0000; stroke-opacity:1; 
stroke-linecap:round; stroke-linejoin:round;">
<circle cx="25.3700" cy="14.5500" r="0.4000" /> 
</g>
<g style="fill:#FFFFFF; fill-opacity:1.0000; 
stroke:#FFFFFF; stroke-width:0.0212; stroke-opacity:1; 
stroke-linecap:round; stroke-linejoin:round;">
</g>
<g style="fill:#FFFFFF; fill-opacity:1.0000; 
stroke:#FFFFFF; stroke-width:0.0000; stroke-opacity:1; 
stroke-linecap:round; stroke-linejoin:round;">
<circle cx="22.8300" cy="14.5500" r="0.4000" /> 
</g>
<g style="fill:#FFFFFF; fill-opacity:1.0000; 
stroke:#FFFFFF; stroke-width:0.0212; stroke-opacity:1; 
stroke-linecap:round; stroke-linejoin:round;">
</g>
<g style="fill:#FFFFFF; fill-opacity:1.0000; 
stroke:#FFFFFF; stroke-width:0.0000; stroke-opacity:1; 
stroke-linecap:round; stroke-linejoin:round;">
<circle cx="20.2900" cy="14.5500" r="0.4000" /> 
</g>
<g style="fill:#FFFFFF; fill-opacity:1.0000; 
stroke:#FFFFFF; stroke-width:0.0212; stroke-opacity:1; 
stroke-linecap:round; stroke-linejoin:round;">
</g>
<g style="fill:#FFFFFF; fill-opacity:1.0000; 
stroke:#FFFFFF; stroke-width:0.0000; stroke-opacity:1; 
stroke-linecap:round; stroke-linejoin:round;">
<circle cx="17.7500" cy="14.5500" r="0.4000" /> 
</g>
<g style="fill:#FFFFFF; fill-opacity:1.0000; 
stroke:#FFFFFF; stroke-width:0.0212; stroke-opacity:1; 
stroke-linecap:round; stroke-linejoin:round;">
</g>
<g style="fill:#FFFFFF; fill-opacity:1.0000; 
stroke:#FFFFFF; stroke-width:0.0000; stroke-opacity:1; 
stroke-linecap:round; stroke-linejoin:round;">
<circle cx="15.2100" cy="14.5500" r="0.4000" /> 
</g>
<g style="fill:#FFFFFF; fill-opacity:1.0000; 
stroke:#FFFFFF; stroke-width:0.0212; stroke-opacity:1; 
stroke-linecap:round; stroke-linejoin:round;">
</g>
<g style="fill:#FFFFFF; fill-opacity:1.0000; 
stroke:#FFFFFF; stroke-width:0.0000; stroke-opacity:1; 
stroke-linecap:round; stroke-linejoin:round;">
<circle cx="15.2100" cy="22.1700" r="0.4000" /> 
</g>
<g style="fill:#FFFFFF; fill-opacity:1.0000; 
stroke:#FFFFFF; stroke-width:0.0212; stroke-opacity:1; 
stroke-linecap:round; stroke-linejoin:round;">
</g>
<g style="fill:#FFFFFF; fill-opacity:1.0000; 
stroke:#FFFFFF; stroke-width:0.0000; stroke-opacity:1; 
stroke-linecap:round; stroke-linejoin:round;">
<circle cx="17.7500" cy="22.1700" r="0.4000" /> 
</g>
<g style="fill:#FFFFFF; fill-opacity:1.0000; 
stroke:#FFFFFF; stroke-width:0.0212; stroke-opacity:1; 
stroke-linecap:round; stroke-linejoin:round;">
</g>
<g style="fill:#FFFFFF; fill-opacity:1.0000; 
stroke:#FFFFFF; stroke-width:0.0000; stroke-opacity:1; 
stroke-linecap:round; stroke-linejoin:round;">
<circle cx="20.2900" cy="22.1700" r="0.4000" /> 
</g>
<g style="fill:#FFFFFF; fill-opacity:1.0000; 
stroke:#FFFFFF; stroke-width:0.0212; stroke-opacity:1; 
stroke-linecap:round; stroke-linejoin:round;">
</g>
<g style="fill:#FFFFFF; fill-opacity:1.0000; 
stroke:#FFFFFF; stroke-width:0.0000; stroke-opacity:1; 
stroke-linecap:round; stroke-linejoin:round;">
<circle cx="22.8300" cy="22.1700" r="0.4000" /> 
</g>
<g style="fill:#FFFFFF; fill-opacity:1.0000; 
stroke:#FFFFFF; stroke-width:0.0212; stroke-opacity:1; 
stroke-linecap:round; stroke-linejoin:round;">
</g>
<g style="fill:#FFFFFF; fill-opacity:1.0000; 
stroke:#FFFFFF; stroke-width:0.0000; stroke-opacity:1; 
stroke-linecap:round; stroke-linejoin:round;">
<circle cx="25.3700" cy="22.1700" r="0.4000" /> 
</g>
<g style="fill:#FFFFFF; fill-opacity:1.0000; 
stroke:#FFFFFF; stroke-width:0.0212; stroke-opacity:1; 
stroke-linecap:round; stroke-linejoin:round;">
</g>
<g style="fill:#FFFFFF; fill-opacity:1.0000; 
stroke:#FFFFFF; stroke-width:0.0000; stroke-opacity:1; 
stroke-linecap:round; stroke-linejoin:round;">
<circle cx="27.9100" cy="22.1700" r="0.4000" /> 
</g>
<g style="fill:#FFFFFF; fill-opacity:1.0000; 
stroke:#FFFFFF; stroke-width:0.0212; stroke-opacity:1; 
stroke-linecap:round; stroke-linejoin:round;">
</g>
<g style="fill:#FFFFFF; fill-opacity:1.0000; 
stroke:#FFFFFF; stroke-width:0.0000; stroke-opacity:1; 
stroke-linecap:round; stroke-linejoin:round;">
<circle cx="30.4500" cy="22.1700" r="0.4000" /> 
</g>
<g style="fill:#FFFFFF; fill-opacity:1.0000; 
stroke:#FFFFFF; stroke-width:0.0212; stroke-opacity:1; 
stroke-linecap:round; stroke-linejoin:round;">
</g>
<g style="fill:#FFFFFF; fill-opacity:1.0000; 
stroke:#FFFFFF; stroke-width:0.0000; stroke-opacity:1; 
stroke-linecap:round; stroke-linejoin:round;">
<circle cx="38.0120" cy="4.1420" r="0.5000" /> 
</g>
<g style="fill:#FFFFFF; fill-opacity:1.0000; 
stroke:#FFFFFF; stroke-width:0.0212; stroke-opacity:1; 
stroke-linecap:round; stroke-linejoin:round;">
</g>
<g style="fill:#FFFFFF; fill-opacity:1.0000; 
stroke:#FFFFFF; stroke-width:0.0000; stroke-opacity:1; 
stroke-linecap:round; stroke-linejoin:round;">
<circle cx="38.0120" cy="6.6820" r="0.5000" /> 
</g>
<g style="fill:#FFFFFF; fill-opacity:1.0000; 
stroke:#FFFFFF; stroke-width:0.0212; stroke-opacity:1; 
stroke-linecap:round; stroke-linejoin:round;">
</g>
<g style="fill:#FFFFFF; fill-opacity:1.0000; 
stroke:#FFFFFF; stroke-width:0.0000; stroke-opacity:1; 
stroke-linecap:round; stroke-linejoin:round;">
<circle cx="38.0120" cy="9.2220" r="0.5000" /> 
</g>
<g style="fill:#FFFFFF; fill-opacity:1.0000; 
stroke:#FFFFFF; stroke-width:0.0212; stroke-opacity:1; 
stroke-linecap:round; stroke-linejoin:round;">
</g>
<g style="fill:#FFFFFF; fill-opacity:1.0000; 
stroke:#FFFFFF; stroke-width:0.0000; stroke-opacity:1; 
stroke-linecap:round; stroke-linejoin:round;">
<circle cx="38.0120" cy="11.7620" r="0.5000" /> 
</g>
<g style="fill:#FFFFFF; fill-opacity:1.0000; 
stroke:#FFFFFF; stroke-width:0.0212; stroke-opacity:1; 
stroke-linecap:round; stroke-linejoin:round;">
</g>
<g style="fill:#FFFFFF; fill-opacity:1.0000; 
stroke:#FFFFFF; stroke-width:0.0000; stroke-opacity:1; 
stroke-linecap:round; stroke-linejoin:round;">
<circle cx="38.0120" cy="14.3020" r="0.5000" /> 
</g>
<g style="fill:#FFFFFF; fill-opacity:1.0000; 
stroke:#FFFFFF; stroke-width:0.0212; stroke-opacity:1; 
stroke-linecap:round; stroke-linejoin:round;">
</g>
<g style="fill:#FFFFFF; fill-opacity:1.0000; 
stroke:#FFFFFF; stroke-width:0.0000; stroke-opacity:1; 
stroke-linecap:round; stroke-linejoin:round;">
<circle cx="38.0120" cy="16.8420" r="0.5000" /> 
</g>
<g style="fill:#FFFFFF; fill-opacity:1.0000; 
stroke:#FFFFFF; stroke-width:0.0212; stroke-opacity:1; 
stroke-linecap:round; stroke-linejoin:round;">
</g>
<g style="fill:#FFFFFF; fill-opacity:1.0000; 
stroke:#FFFFFF; stroke-width:0.0000; stroke-opacity:1; 
stroke-linecap:round; stroke-linejoin:round;">
<circle cx="38.0120" cy="19.3820" r="0.5000" /> 
</g>
<g style="fill:#FFFFFF; fill-opacity:1.0000; 
stroke:#FFFFFF; stroke-width:0.0212; stroke-opacity:1; 
stroke-linecap:round; stroke-linejoin:round;">
</g>
<g style="fill:#FFFFFF; fill-opacity:1.0000; 
stroke:#FFFFFF; stroke-width:0.0000; stroke-opacity:1; 
stroke-linecap:round; stroke-linejoin:round;">
<circle cx="38.0120" cy="21.9220" r="0.5000" /> 
</g>
<g style="fill:#FFFFFF; fill-opacity:1.0000; 
stroke:#FFFFFF; stroke-width:0.0212; stroke-opacity:1; 
stroke-linecap:round; stroke-linejoin:round;">
</g>
<g style="fill:#FFFFFF; fill-opacity:1.0000; 
stroke:#FFFFFF; stroke-width:0.0000; stroke-opacity:1; 
stroke-linecap:round; stroke-linejoin:round;">
<circle cx="38.0120" cy="24.4620" r="0.5000" /> 
</g>
<g style="fill:#FFFFFF; fill-opacity:1.0000; 
stroke:#FFFFFF; stroke-width:0.0212; stroke-opacity:1; 
stroke-linecap:round; stroke-linejoin:round;">
</g>
<g style="fill:#FFFFFF; fill-opacity:1.0000; 
stroke:#FFFFFF; stroke-width:0.0000; stroke-opacity:1; 
stroke-linecap:round; stroke-linejoin:round;">
<circle cx="38.0120" cy="27.0020" r="0.5000" /> 
</g>
<g style="fill:#FFFFFF; fill-opacity:1.0000; 
stroke:#FFFFFF; stroke-width:0.0212; stroke-opacity:1; 
stroke-linecap:round; stroke-linejoin:round;">
</g>
<g style="fill:#FFFFFF; fill-opacity:1.0000; 
stroke:#FFFFFF; stroke-width:0.0000; stroke-opacity:1; 
stroke-linecap:round; stroke-linejoin:round;">
<circle cx="38.0120" cy="29.5420" r="0.5000" /> 
</g>
<g style="fill:#FFFFFF; fill-opacity:1.0000; 
stroke:#FFFFFF; stroke-width:0.0212; stroke-opacity:1; 
stroke-linecap:round; stroke-linejoin:round;">
</g>
<g style="fill:#000000; fill-opacity:1.0000; 
stroke:#000000; stroke-width:0.0212; stroke-opacity:1; 
stroke-linecap:round; stroke-linejoin:round;">
</g>
<g style="fill:#000000; fill-opacity:0.0; 
stroke:#000000; stroke-width:0.1000; stroke-opacity:1; 
stroke-linecap:round; stroke-linejoin:round;">
<path style="fill:#000000; fill-opacity:0.0; 
stroke:#000000; stroke-width:0.1000; stroke-opacity:1; 
stroke-linecap:round; stroke-linejoin:round;fill:none"
d="M 0.0500,0.0500
39.0500,0.0500
39.0500,33.3500
0.0500,33.3500
Z" /> 
<g >
</g>
<g >
</g>
<g >
</g>
<g >
</g>
<g >
</g>
<g >
</g>
<g >
</g>
</g> 
</svg>
